<?xml version="1.0" encoding="UTF-8"?>
<svg id="Layer_1" data-name="Layer 1" xmlns="http://www.w3.org/2000/svg" version="1.1" viewBox="0 0 307.73 289.66">
  <defs>
    <style>
      .cls-1 {
        fill: #de6749;
      }

      .cls-1, .cls-2, .cls-3, .cls-4 {
        stroke-width: 0px;
      }

      .cls-2 {
        fill: #b749de;
      }

      .cls-3 {
        fill: #498bdf;
      }

      .cls-4 {
        fill: #8ade4a;
      }
    </style>
  </defs>
  <path class="cls-2" d="M285.71,122.99c.95-4.47,1.61-9.04,1.91-13.74,1.53-24.31-6.31-44.83-25.48-60.37-15.06-12.21-32.54-17.15-51.68-14.76-24.16,3.01-42.15,15.5-53.69,37.07-.56,1.04-1.32,1.97-2.32,3.44-.82-1.45-1.34-2.33-1.82-3.24-3.69-6.99-8.11-13.46-13.95-18.83-13.33-12.23-29.01-18.58-47.17-19-37.38-.86-69.18,29.38-69.98,66.77-.17,7.81.62,15.31,2.19,22.55,35.3-29.97,81-48.06,130.94-48.06s95.75,18.13,131.06,48.17Z"/>
  <path class="cls-3" d="M47.84,174.09c27.38-27.25,65.13-44.1,106.81-44.1s79.55,16.9,106.94,44.23c2.06-2.9,4.07-5.85,5.96-8.89,8.28-13.3,14.95-27.21,18.16-42.34-35.32-30.03-81.07-48.17-131.06-48.17S59.01,92.92,23.71,122.89c3.49,16.11,10.83,30.95,20.04,45.17,1.32,2.04,2.69,4.05,4.09,6.03Z"/>
  <path class="cls-4" d="M47.84,174.09c9.47,13.41,20.57,25.44,32.43,36.79.9.86,1.81,1.7,2.72,2.54,18.15-18.69,43.55-30.31,71.67-30.31s53.65,11.68,71.81,30.46c2.66-2.49,5.29-5.02,7.86-7.62,9.87-9.95,19.17-20.35,27.27-31.73-27.39-27.33-65.19-44.23-106.94-44.23s-79.43,16.85-106.81,44.1Z"/>
  <path class="cls-1" d="M150.51,263.2c2.98,1.92,5.9,1.96,8.96-.06,3.63-2.4,7.48-4.49,11.13-6.86,19.75-12.81,38.66-26.65,55.86-42.71-18.16-18.78-43.62-30.46-71.81-30.46s-53.51,11.62-71.67,30.31c12.42,11.6,25.73,22.15,39.73,31.78,9.09,6.26,18.52,12.03,27.8,18Z"/>
</svg>