<?xml version="1.0" encoding="UTF-8"?>
<svg xmlns="http://www.w3.org/2000/svg" version="1.1" viewBox="0 0 1560.78 423.51">
  <defs>
    <style>
      .cls-1, .cls-2 {
        fill: #231f20;
      }

      .cls-1, .cls-3 {
        stroke-width: 0px;
      }

      .cls-2 {
        stroke: #231f20;
        stroke-miterlimit: 10;
        stroke-width: 8px;
      }

      .cls-3 {
        fill: #010101;
      }
    </style>
  </defs>
  <g id="Layer_5" data-name="Layer 5">
    <g>
      <path class="cls-3" d="M574.3,335.4h105.13c-7.05-1.75-22.18-6.88-31.96-14.5-14.33-11.17-20.41-21.36-20.41-21.36,0,0-4.71,9.37-21.6,21.98-8.42,6.29-22.51,11.63-31.16,13.88Z"/>
      <polygon class="cls-3" points="719.09 97.71 631.33 202.23 645.26 218.88 746.69 98.09 746.25 97.71 753.2 97.71 753.2 64.71 516.34 64.71 543.93 97.71 719.09 97.71"/>
      <polygon class="cls-3" points="510.84 345.7 503.29 345.7 503.29 378.7 739.41 378.7 711.81 345.7 538.76 345.7 625.47 242.45 611.54 225.79 510.84 345.7"/>
      <polygon class="cls-3" points="626.33 186.53 658.79 145.7 595.32 145.7 626.33 186.53"/>
      <polygon class="cls-3" points="770.91 350.81 766.24 372.92 508.33 64.49 503.12 36.23 472.53 0 472.35 37.12 435.72 31.08 466.31 67.31 495.89 78.14 752.78 385.34 731.65 388.8 803.26 423.51 770.91 350.81"/>
    </g>
  </g>
  <g id="Layer_9" data-name="Layer 9">
    <g>
      <path class="cls-1" d="M88.66,291.47c-9.1,0-17.09-2.09-23.98-6.27-6.9-4.18-12.25-9.75-16.06-16.72-3.81-6.96-5.72-14.63-5.72-22.99v-80.3H0v-27.72h117.26v27.72h-42.9v84.04c0,3.96,1.39,7.37,4.18,10.23,2.79,2.86,6.16,4.29,10.12,4.29h11v27.72h-11Z"/>
      <path class="cls-1" d="M124.52,291.47v-27.72h27.72v-98.56h-27.72v-27.72h86.9v27.72h-27.72v98.56h27.72v27.72h-86.9Z"/>
      <path class="cls-2" d="M227.67,286.05v-90.57c0-11.96,1.85-22.29,5.54-30.99,3.69-8.69,8.77-15.37,15.22-20.03,6.45-4.66,13.9-6.99,22.33-6.99,4.37,0,8.51.77,12.41,2.3,3.9,1.53,7.5,3.72,10.78,6.57,3.28,2.85,6.17,6.3,8.67,10.33,2.6-4.17,5.52-7.68,8.74-10.54,3.23-2.85,6.82-5.01,10.78-6.47,3.95-1.46,8.12-2.19,12.49-2.19,8.43,0,15.87,2.33,22.33,6.99,6.45,4.66,11.53,11.34,15.23,20.03,3.69,8.7,5.54,19.03,5.54,30.99v90.57h-22.33v-92.44c0-5.56-.83-10.57-2.5-15.02-1.67-4.45-4.06-8.03-7.18-10.75-3.12-2.71-6.82-4.07-11.09-4.07s-7.96,1.36-11.09,4.07c-3.12,2.71-5.52,6.3-7.18,10.75-1.67,4.45-2.5,9.46-2.5,15.02v92.44h-22.33v-92.44c0-5.56-.83-10.57-2.5-15.02-1.67-4.45-4.06-8.03-7.18-10.75-3.12-2.71-6.82-4.07-11.09-4.07s-7.96,1.36-11.09,4.07c-3.12,2.71-5.52,6.3-7.18,10.75-1.67,4.45-2.5,9.46-2.5,15.02v92.44h-22.33Z"/>
      <path class="cls-1" d="M444.47,291.47c-8.51,0-16.25-2.05-23.21-6.16-6.97-4.1-12.51-9.64-16.61-16.61-4.11-6.96-6.16-14.7-6.16-23.21,0-6.16,1.32-11.95,3.96-17.38,2.64-5.42,6.23-10.19,10.78-14.3-4.55-4.1-8.14-8.87-10.78-14.3-2.64-5.42-3.96-11.14-3.96-17.16,0-8.36,2.01-15.91,6.05-22.66,4.03-6.74,9.46-12.13,16.28-16.17,6.82-4.03,14.33-6.05,22.55-6.05h63.36v27.72h-59.84c-3.08,0-5.91.77-8.47,2.31-2.57,1.54-4.62,3.6-6.16,6.16-1.54,2.57-2.31,5.46-2.31,8.69s.77,5.91,2.31,8.47c1.54,2.57,3.59,4.62,6.16,6.16,2.56,1.54,5.39,2.31,8.47,2.31h52.36v27.72h-51.04c-3.38,0-6.46.85-9.24,2.53-2.79,1.69-4.99,3.93-6.6,6.71-1.62,2.79-2.42,5.87-2.42,9.24s.8,6.46,2.42,9.24c1.61,2.79,3.81,4.99,6.6,6.6,2.78,1.62,5.86,2.42,9.24,2.42h58.52v27.72h-62.26Z"/>
      <path class="cls-1" d="M738.64,291.47l50.16-136.84c2.49-6.6,6.41-11.55,11.77-14.85,5.35-3.3,11.4-4.95,18.15-4.95s12.83,1.58,18.26,4.73c5.43,3.16,9.31,8.11,11.66,14.85l50.38,137.06h-34.54l-10.34-31.02h-71.72l-10.78,31.02h-33ZM791.88,232.73h53.02l-22.22-67.54c-.3-1.02-.77-1.76-1.43-2.2-.66-.44-1.43-.66-2.31-.66s-1.62.26-2.2.77c-.59.52-1.03,1.21-1.32,2.09l-23.54,67.54Z"/>
      <path class="cls-1" d="M903.64,291.47v-154h68.86c10.12,0,19.32,2.24,27.61,6.71,8.28,4.48,14.88,10.67,19.8,18.59,4.91,7.92,7.37,17.16,7.37,27.72s-2.42,19.33-7.26,27.17c-4.84,7.85-11.22,14.04-19.14,18.59l14.08,24.64c.58.88,1.32,1.58,2.2,2.09.88.52,1.9.77,3.08.77h14.96v27.72h-19.8c-6.16,0-11.77-1.54-16.83-4.62s-9.06-7.11-11.99-12.1l-17.38-31.24h-34.1v47.96h-31.46ZM935.1,215.79h33.66c4.98,0,9.53-.99,13.64-2.97,4.11-1.98,7.37-4.87,9.79-8.69,2.42-3.81,3.63-8.36,3.63-13.64s-1.25-9.82-3.74-13.64c-2.49-3.81-5.76-6.71-9.79-8.69-4.04-1.98-8.55-2.97-13.53-2.97h-33.66v50.6Z"/>
      <path class="cls-1" d="M1116.6,291.47c-12.03,0-22.88-2.01-32.56-6.05-9.68-4.03-17.97-9.57-24.86-16.61-6.9-7.04-12.21-15.21-15.95-24.53-3.74-9.31-5.61-19.25-5.61-29.81s1.87-20.49,5.61-29.81c3.74-9.31,9.05-17.49,15.95-24.53,6.89-7.04,15.18-12.57,24.86-16.61,9.68-4.03,20.53-6.05,32.56-6.05h23.98v27.72h-23.32c-7.04,0-13.5,1.25-19.36,3.74-5.87,2.5-10.96,5.98-15.29,10.45-4.33,4.48-7.67,9.68-10.01,15.62-2.35,5.94-3.52,12.43-3.52,19.47s1.17,13.57,3.52,19.58c2.34,6.02,5.68,11.22,10.01,15.62,4.32,4.4,9.42,7.85,15.29,10.34,5.87,2.5,12.32,3.74,19.36,3.74h23.32v27.72h-23.98Z"/>
      <path class="cls-1" d="M1157.3,291.47v-154h31.46v61.82h67.32v-61.82h31.46v154h-31.46v-64.46h-67.32v64.46h-31.46Z"/>
      <path class="cls-1" d="M1350.24,291.47c-8.51,0-16.25-2.05-23.21-6.16-6.97-4.1-12.51-9.64-16.61-16.61-4.11-6.96-6.16-14.7-6.16-23.21,0-6.16,1.32-11.95,3.96-17.38,2.64-5.42,6.23-10.19,10.78-14.3-4.55-4.1-8.14-8.87-10.78-14.3-2.64-5.42-3.96-11.14-3.96-17.16,0-8.36,2.02-15.91,6.05-22.66,4.03-6.74,9.46-12.13,16.28-16.17,6.82-4.03,14.34-6.05,22.55-6.05h63.36v27.72h-59.84c-3.08,0-5.91.77-8.47,2.31-2.57,1.54-4.62,3.6-6.16,6.16-1.54,2.57-2.31,5.46-2.31,8.69s.77,5.91,2.31,8.47c1.54,2.57,3.59,4.62,6.16,6.16,2.56,1.54,5.39,2.31,8.47,2.31h52.36v27.72h-51.04c-3.38,0-6.46.85-9.24,2.53-2.79,1.69-4.99,3.93-6.6,6.71-1.62,2.79-2.42,5.87-2.42,9.24s.8,6.46,2.42,9.24c1.61,2.79,3.81,4.99,6.6,6.6,2.79,1.62,5.87,2.42,9.24,2.42h58.52v27.72h-62.26Z"/>
      <path class="cls-1" d="M1429.22,291.47v-154h68.86c10.12,0,19.32,2.24,27.61,6.71,8.28,4.48,14.88,10.67,19.8,18.59,4.91,7.92,7.37,17.16,7.37,27.72s-2.42,19.33-7.26,27.17c-4.84,7.85-11.22,14.04-19.14,18.59l14.08,24.64c.58.88,1.32,1.58,2.2,2.09.88.52,1.9.77,3.08.77h14.96v27.72h-19.8c-6.16,0-11.77-1.54-16.83-4.62s-9.06-7.11-11.99-12.1l-17.38-31.24h-34.1v47.96h-31.46ZM1460.68,215.79h33.66c4.98,0,9.53-.99,13.64-2.97,4.11-1.98,7.37-4.87,9.79-8.69,2.42-3.81,3.63-8.36,3.63-13.64s-1.25-9.82-3.74-13.64c-2.49-3.81-5.76-6.71-9.79-8.69-4.04-1.98-8.55-2.97-13.53-2.97h-33.66v50.6Z"/>
    </g>
  </g>
  <g id="Layer_4" data-name="Layer 4">
    <g>
      <path class="cls-1" d="M839.53,407.54v-9.95h30.74c2.02,0,3.76-.44,5.23-1.32,1.47-.88,2.58-2.04,3.34-3.46.76-1.43,1.13-2.94,1.13-4.54,0-1.51-.34-2.92-1.01-4.22-.67-1.3-1.7-2.35-3.09-3.15-1.39-.8-3.05-1.2-4.98-1.2h-12.98c-4.12,0-7.71-.69-10.77-2.08-3.07-1.39-5.46-3.42-7.18-6.11-1.72-2.69-2.58-5.96-2.58-9.83,0-3.28.8-6.3,2.39-9.07,1.59-2.77,3.82-5.02,6.68-6.74,2.85-1.72,6.13-2.58,9.83-2.58h29.61v9.95h-28.48c-2.6,0-4.66.8-6.17,2.39-1.51,1.6-2.27,3.49-2.27,5.67s.78,3.93,2.33,5.48c1.55,1.55,3.76,2.33,6.62,2.33h12.35c4.62,0,8.51.74,11.66,2.21,3.15,1.47,5.54,3.59,7.18,6.36,1.64,2.77,2.46,6.17,2.46,10.21,0,3.45-.84,6.66-2.52,9.64-1.68,2.98-4.01,5.4-6.99,7.24-2.98,1.85-6.45,2.77-10.39,2.77h-32.13Z"/>
      <path class="cls-1" d="M943.48,353.24v-9.95h44.73v9.95h-44.73ZM972.84,407.54c-5.71,0-10.19-1.64-13.42-4.91-3.23-3.28-4.85-7.73-4.85-13.36v-62.12h11.59v61.36c0,2.77.78,4.98,2.33,6.62,1.55,1.64,3.72,2.46,6.49,2.46h12.98v9.95h-15.12Z"/>
      <path class="cls-1" d="M1078.3,409.06c-5.8,0-10.98-1.2-15.56-3.59-4.58-2.39-8.15-5.73-10.71-10.02-2.56-4.28-3.84-9.28-3.84-14.99v-37.17h11.72v37.04c0,3.86.84,7.2,2.52,10.02,1.68,2.82,3.93,4.98,6.74,6.49,2.81,1.51,5.82,2.27,9.01,2.27s6.32-.76,9.14-2.27c2.81-1.51,5.08-3.67,6.8-6.49,1.72-2.81,2.58-6.15,2.58-10.02v-37.04h11.72v37.17c0,5.71-1.3,10.71-3.91,14.99-2.6,4.28-6.17,7.62-10.71,10.02-4.54,2.39-9.7,3.59-15.5,3.59Z"/>
      <path class="cls-1" d="M1202.41,409.06c-4.87,0-9.32-.78-13.36-2.33-4.03-1.55-7.52-3.84-10.46-6.87-2.94-3.02-5.23-6.66-6.87-10.9-1.64-4.24-2.46-9.01-2.46-14.3,0-6.72,1.36-12.54,4.09-17.45,2.73-4.91,6.47-8.71,11.21-11.4,4.75-2.69,10.06-4.03,15.94-4.03,3.28,0,6.4.55,9.39,1.64,2.98,1.09,5.65,2.6,8,4.54,2.35,1.93,4.2,4.2,5.54,6.8h.25v-39.19h11.59v59.47c0,7.14-1.45,13.25-4.35,18.33-2.9,5.08-6.8,8.97-11.72,11.66-4.91,2.69-10.52,4.03-16.82,4.03ZM1202.41,399.1c3.95,0,7.52-.96,10.71-2.9,3.19-1.93,5.73-4.66,7.62-8.19,1.89-3.53,2.83-7.69,2.83-12.47s-.94-9.09-2.83-12.66c-1.89-3.57-4.43-6.32-7.62-8.25-3.19-1.93-6.8-2.9-10.84-2.9s-7.54,1.01-10.77,3.02c-3.23,2.02-5.8,4.79-7.69,8.32-1.89,3.53-2.83,7.64-2.83,12.35s.96,9.07,2.9,12.6c1.93,3.53,4.51,6.26,7.75,8.19,3.23,1.93,6.82,2.9,10.77,2.9Z"/>
      <path class="cls-1" d="M1305.22,333.08c-2.1,0-3.93-.78-5.48-2.33-1.55-1.55-2.33-3.38-2.33-5.48s.78-3.93,2.33-5.48,3.38-2.33,5.48-2.33,3.93.78,5.48,2.33c1.55,1.55,2.33,3.38,2.33,5.48s-.78,3.93-2.33,5.48c-1.55,1.56-3.38,2.33-5.48,2.33ZM1299.3,407.54v-64.26h11.72v64.26h-11.72Z"/>
      <path class="cls-1" d="M1405.52,409.06c-6.55,0-12.35-1.49-17.39-4.47s-9.03-7.01-11.97-12.1c-2.94-5.08-4.41-10.77-4.41-17.07s1.47-11.99,4.41-17.07c2.94-5.08,6.93-9.11,11.97-12.1,5.04-2.98,10.84-4.47,17.39-4.47s12.37,1.49,17.45,4.47c5.08,2.98,9.07,6.99,11.97,12.03,2.9,5.04,4.35,10.75,4.35,17.14s-1.45,11.99-4.35,17.07c-2.9,5.08-6.89,9.12-11.97,12.1-5.08,2.98-10.9,4.47-17.45,4.47ZM1405.52,399.1c4.45,0,8.32-1.05,11.59-3.15,3.28-2.1,5.84-4.93,7.69-8.5,1.85-3.57,2.77-7.58,2.77-12.03s-.93-8.46-2.77-12.03c-1.85-3.57-4.41-6.4-7.69-8.5-3.28-2.1-7.14-3.15-11.59-3.15s-8.21,1.05-11.53,3.15c-3.32,2.1-5.9,4.94-7.75,8.5-1.85,3.57-2.77,7.58-2.77,12.03s.92,8.46,2.77,12.03c1.85,3.57,4.43,6.41,7.75,8.5,3.32,2.1,7.16,3.15,11.53,3.15Z"/>
      <path class="cls-1" d="M1499.26,407.54v-9.95h30.74c2.02,0,3.76-.44,5.23-1.32,1.47-.88,2.58-2.04,3.34-3.46.76-1.43,1.13-2.94,1.13-4.54,0-1.51-.34-2.92-1.01-4.22-.67-1.3-1.7-2.35-3.09-3.15-1.39-.8-3.05-1.2-4.98-1.2h-12.98c-4.12,0-7.71-.69-10.77-2.08-3.07-1.39-5.46-3.42-7.18-6.11-1.72-2.69-2.58-5.96-2.58-9.83,0-3.28.8-6.3,2.39-9.07,1.59-2.77,3.82-5.02,6.68-6.74,2.85-1.72,6.13-2.58,9.83-2.58h29.61v9.95h-28.48c-2.6,0-4.66.8-6.17,2.39-1.51,1.6-2.27,3.49-2.27,5.67s.78,3.93,2.33,5.48c1.55,1.55,3.76,2.33,6.62,2.33h12.35c4.62,0,8.51.74,11.66,2.21,3.15,1.47,5.54,3.59,7.18,6.36,1.64,2.77,2.46,6.17,2.46,10.21,0,3.45-.84,6.66-2.52,9.64-1.68,2.98-4.01,5.4-6.99,7.24-2.98,1.85-6.45,2.77-10.39,2.77h-32.13Z"/>
    </g>
  </g>
</svg>