<?xml version="1.0" encoding="UTF-8"?>
<svg id="Layer_6" data-name="Layer 6" xmlns="http://www.w3.org/2000/svg" version="1.1" viewBox="0 0 367.53 423.51">
  <defs>
    <style>
      .cls-1 {
        fill: #010101;
        stroke-width: 0px;
      }
    </style>
  </defs>
  <path class="cls-1" d="M138.58,335.4h105.13c-7.05-1.75-22.18-6.88-31.96-14.5-14.33-11.17-20.41-21.36-20.41-21.36,0,0-4.71,9.37-21.6,21.98-8.42,6.29-22.51,11.63-31.16,13.88Z"/>
  <polygon class="cls-1" points="283.37 97.71 195.61 202.23 209.54 218.88 310.97 98.09 310.53 97.71 317.47 97.71 317.47 64.71 80.61 64.71 108.21 97.71 283.37 97.71"/>
  <polygon class="cls-1" points="75.12 345.7 67.57 345.7 67.57 378.7 303.69 378.7 276.09 345.7 103.04 345.7 189.75 242.45 175.82 225.79 75.12 345.7"/>
  <polygon class="cls-1" points="190.61 186.53 223.07 145.7 159.6 145.7 190.61 186.53"/>
  <polygon class="cls-1" points="335.19 350.81 330.52 372.92 72.61 64.49 67.4 36.23 36.81 0 36.63 37.12 0 31.08 30.59 67.31 60.17 78.14 317.06 385.34 295.93 388.8 367.53 423.51 335.19 350.81"/>
</svg>